<?xml version="1.0" standalone="no"?><!DOCTYPE svg PUBLIC "-//W3C//DTD SVG 1.1//EN" "http://www.w3.org/Graphics/SVG/1.1/DTD/svg11.dtd"><svg t="1768468877304" class="icon" viewBox="0 0 1027 1024" version="1.1" xmlns="http://www.w3.org/2000/svg" p-id="22307" width="32.09375" height="32" xmlns:xlink="http://www.w3.org/1999/xlink"><path d="M986.25989632 542.80400211a56.41440029 56.41440029 0 0 0-72.45378901 0l-157.35193145 125.82623688a108.40414208 108.40414208 0 0 1-68.02913053 23.78254222H486.9647963a27.65411783 27.65411783 0 0 1 0-54.47861248H620.81072697a56.69094173 56.69094173 0 0 0 56.69094172-45.21448334 54.47861248 54.47861248 0 0 0-53.78725888-63.6044709H350.76826567a200.35408441 200.35408441 0 0 0-126.10277831 44.79967118L145.43643875 638.21070903H51.13589646a27.65411783 27.65411783 0 0 0-27.65411783 27.65411783v162.74448498a27.65411783 27.65411783 0 0 0 27.65411783 27.65411783h607.4227018A109.09549568 109.09549568 0 0 0 726.7259995 831.78953499l257.32156757-206.02317824a54.47861248 54.47861248 0 0 0 2.21232925-82.96235464zM241.53449927 505.88575515a57.65883563 57.65883563 0 0 1 25.99487033-59.17981242l57.93537707-35.81208348 163.98892032 80.47348395-4.42465963 2.6271414h60.42424775l107.5745189-66.50815374 41.48117732 71.76243541a50.88357717 50.88357717 0 0 0 31.80223601 24.05908253 49.08605895 49.08605895 0 0 0 38.30095303-6.08390599l39.13057736-24.19735325a98.58693006 98.58693006 0 0 0 31.80223601-133.01630748l-46.04410652-78.95250603a30.9726117 30.9726117 0 0 0-19.3578826-14.65668266 30.28125923 30.28125923 0 0 0-23.50600078 3.73330602 13.82705949 13.82705949 0 0 1-10.92337664 1.79751708 15.48630585 15.48630585 0 0 1-9.6789413-7.32834133l-8.43450595-15.20976441a16.59247047 16.59247047 0 0 1 5.11601208-22.53810574 31.80223602 31.80223602 0 0 0 10.50856448-43.0021541l-46.18237724-78.67596572A94.99189475 94.99189475 0 0 0 627.72425614 60.23964329a91.53513017 91.53513017 0 0 0-70.79454151 11.06164736l-39.13057735 24.19735324a52.54282467 52.54282467 0 0 0-17.14555221 70.93281337l42.44907008 72.73032931L433.73061917 306.36129392a15.76284729 15.76284729 0 0 0-3.87157675 2.35059996l-112.13744811 69.13529515a15.76284729 15.76284729 0 0 0-2.90368284 1.79751708l-64.01928306 39.54538952a89.73761309 89.73761309 0 0 0-39.26884694 97.75730688 242.94142635 242.94142635 0 0 1 30.0047178-11.06164736z m286.49666219-355.3554159a20.74058866 20.74058866 0 0 1 6.49871815-27.65411783l39.13057621-24.19735325A60.28597703 60.28597703 0 0 1 620.81072697 90.93571468a63.46620131 63.46620131 0 0 1 38.85403591 30.14298852l46.04410653 78.95250716A48.67124793 48.67124793 0 0 0 689.94602211 264.8801166l8.84931812 15.07149483a47.01200043 47.01200043 0 0 0 29.3133642 22.12329358 45.62929437 45.62929437 0 0 0 34.42937742-4.97774137L808.58218837 375.49658907A66.78469518 66.78469518 0 0 1 786.73543509 466.20209605l-39.13057735 24.19735324a18.25171797 18.25171797 0 0 1-13.82705835 2.21232925 19.63442403 19.63442403 0 0 1-12.16781198-9.26413027zM441.0589605 339.26969456l124.44353081 60.97732949a11.89127054 11.89127054 0 0 0 3.18022314 1.24443534 15.90111801 15.90111801 0 0 0 10.6468352-29.58990563L472.9994661 320.18835227l86.00430705-53.23417714 29.58990678 50.60703687 48.39470649 82.96235349L521.25590187 472.28600204l-163.98891918-81.02656569z" fill="#1296db" p-id="22308"></path><path d="M281.90951083 491.3673432a15.62457657 15.62457657 0 0 0-1.52097565 5.39255239 242.11180317 242.11180317 0 0 1 35.39727019-2.76541099h6.91353031l-19.91096547-9.67894129a15.76284729 15.76284729 0 0 0-20.87885938 7.05179989z" fill="#1296db" p-id="22309"></path></svg>